<?xml version="1.0" standalone="no"?>
<!DOCTYPE svg PUBLIC "-//W3C//DTD SVG 20010904//EN"
 "http://www.w3.org/TR/2001/REC-SVG-20010904/DTD/svg10.dtd">
<svg version="1.0" xmlns="http://www.w3.org/2000/svg"
 width="128.000000pt" height="128.000000pt" viewBox="0 0 128.000000 128.000000"
 preserveAspectRatio="xMidYMid meet">
<metadata>
Created by potrace 1.14, written by Peter Selinger 2001-2017
</metadata>
<g transform="translate(0.000000,128.000000) scale(0.100000,-0.100000)"
fill="#000000" stroke="none">
<path d="M625 1175 c-27 -8 -53 -14 -56 -15 -3 0 -26 -14 -51 -30 -59 -39 -97
-95 -114 -167 -15 -62 -18 -200 -6 -220 12 -20 58 -32 89 -24 l28 7 5 115 c3
63 11 126 17 140 27 61 131 121 173 99 18 -9 20 -20 20 -95 0 -63 4 -87 16
-99 18 -19 85 -21 102 -4 16 16 16 208 0 243 -24 54 -129 77 -223 50z"/>
<path d="M748 729 l-236 -109 -133 60 c-73 33 -135 60 -137 60 -1 0 -2 -25 0
-56 l3 -57 129 -58 129 -59 251 115 251 114 3 50 c2 37 0 51 -10 50 -7 -1
-120 -50 -250 -110z"/>
<path d="M753 528 l-242 -111 -125 57 c-69 31 -130 56 -136 56 -5 0 -10 -22
-10 -50 l0 -51 114 -54 c63 -29 123 -56 134 -59 12 -4 107 34 268 107 l249
113 3 52 c2 29 -1 52 -5 51 -4 0 -117 -50 -250 -111z"/>
<path d="M753 320 l-241 -110 -133 60 c-73 33 -135 60 -137 60 -1 0 -2 -25 0
-56 l3 -57 128 -59 129 -58 251 114 252 114 3 51 c2 28 -1 51 -5 51 -4 0 -117
-50 -250 -110z"/>
</g>
</svg>
